<?xml version="1.0" encoding="UTF-8"?>
<svg id="Layer_1" data-name="Layer 1" xmlns="http://www.w3.org/2000/svg" viewBox="0 0 512.13 511.95">
  <defs>
    <style>
      .cls-1 {
        fill: #fff;
        stroke-width: 0px;
      }
    </style>
  </defs>
  <path class="cls-1" d="m240.15,6.15c9.1-8.2,22.9-8.2,32,0l232,208c9.9,8.8,10.7,24,1.8,33.9s-24,10.7-33.9,1.8l-8-7.2v205.3c0,35.3-28.7,64-64,64H112.05c-35.3,0-64-28.7-64-64v-205.3l-8,7.2c-9.9,8.8-25,8-33.9-1.8s-8-25,1.8-33.9L240.15,6.15Zm16,50.1L96.15,199.75v248.3c0,8.8,7.2,16,16,16h48v-104c0-39.8,32.2-72,72-72h48c39.8,0,72,32.2,72,72v104h48c8.8,0,16-7.2,16-16v-248.3L256.15,56.35v-.1Zm-48,407.8h96v-104c0-13.3-10.7-24-24-24h-48c-13.3,0-24,10.7-24,24v104Z"/>
</svg>